<?xml version="1.0" encoding="utf-8"?>
<!-- Generator: Adobe Illustrator 19.0.0, SVG Export Plug-In . SVG Version: 6.00 Build 0)  -->
<svg version="1.1" id="Layer_1" xmlns="http://www.w3.org/2000/svg" xmlns:xlink="http://www.w3.org/1999/xlink" x="0px" y="0px"
	 viewBox="0 0 84.8 127.5" style="enable-background:new 0 0 84.8 127.5;" xml:space="preserve">
<style type="text/css">
	.st0{fill:#3F59A6;}
</style>
<path class="st0" d="M84.1,82.5c-0.8-0.7-2.1-0.6-2.8,0.2L67.6,98.8l-8.7-6.9c-0.9-0.7-2.1-0.5-2.8,0.3c-0.7,0.9-0.5,2.1,0.3,2.8
	l10.2,8.1c0.4,0.3,0.8,0.4,1.2,0.4c0.6,0,1.1-0.2,1.5-0.7l14.9-17.5C85,84.5,84.9,83.2,84.1,82.5z M70.2,115.7c-1.1,0-2,0.9-2,2
	c0,3.3-2.7,5.9-5.9,5.9H9.9c-3.3,0-5.9-2.6-5.9-5.9V9.8c0-3.3,2.7-5.9,5.9-5.9h52.5c3.3,0,5.9,2.6,5.9,5.9v60.3c0,1.1,0.9,2,2,2
	c1.1,0,2-0.9,2-2V36.5c1.5-0.3,2.6-1.6,2.6-3.2v-8.6c0-1.6-1.1-2.9-2.6-3.2V9.8c0-5.4-4.4-9.8-9.9-9.8H9.9C4.4,0,0,4.4,0,9.8v107.8
	c0,5.4,4.4,9.8,9.9,9.8h52.5c5,0,9.2-3.7,9.8-8.6c0.1-0.2,0.1-0.4,0.1-0.6v-0.7C72.2,116.6,71.3,115.7,70.2,115.7z M46,10
	c1.1,0,2-0.9,2-2s-0.9-2-2-2H26.2c-1.1,0-2,0.9-2,2s0.9,2,2,2H46z M30.6,116.8c0,3,2.5,5.5,5.5,5.5c3,0,5.5-2.5,5.5-5.5
	c0-3-2.5-5.5-5.5-5.5C33.1,111.3,30.6,113.8,30.6,116.8z M37.7,116.8c0,0.8-0.7,1.5-1.5,1.5s-1.5-0.7-1.5-1.5s0.7-1.5,1.5-1.5
	S37.7,115.9,37.7,116.8z M59.7,71.9c1.2,0,2.2-1,2.2-2.2V25.7c0-3.7-3.5-6.9-7.6-6.9H18.6c-4.2,0-7.6,3.4-7.6,7.5v73.5
	c0,4.2,3.4,7.5,7.6,7.5h31.2c1.2,0,2.2-1,2.2-2.2s-1-2.2-2.2-2.2H18.6c-1.8,0-3.2-1.4-3.2-3.2V26.4c0-1.8,1.4-3.2,3.2-3.2h35.7
	c1.9,0,3.2,1.5,3.2,2.5v44.1C57.6,71,58.5,71.9,59.7,71.9z"/>
</svg>
